<svg width="512" height="512" viewBox="0 0 512 512" fill="none" xmlns="http://www.w3.org/2000/svg">
<g clip-path="url(#clip0_136_2)">
<path d="M74.6389 319.085C103.289 401.785 184.931 454.803 272.135 447.339L285.519 510.308C163.597 524.605 48.1995 449.665 11.6701 332.469L74.6389 319.085Z" fill="white"/>
<path d="M510.31 226.48C524.607 348.402 449.666 463.799 332.47 500.328L319.086 437.359C401.786 408.709 454.805 327.068 447.341 239.864L510.31 226.48Z" fill="white"/>
<path d="M349.081 345.062L311.702 402.621L264.751 412.601L207.337 375.316L263.202 289.292L349.081 345.062Z" fill="white"/>
<path d="M222.946 263.149L167.081 349.174L109.377 311.701L99.3973 264.75L136.776 207.19L222.946 263.149Z" fill="white"/>
<path d="M402.623 200.297L412.603 247.248L375.224 304.806L289.345 249.036L345.21 163.012L402.623 200.297Z" fill="white"/>
<path d="M192.915 74.6378C110.215 103.288 57.1956 184.93 64.6592 272.134L1.69034 285.518C-12.6064 163.596 62.334 48.1993 179.53 11.6698L192.915 74.6378Z" fill="white"/>
<path d="M226.481 1.69009C348.403 -12.6066 463.801 62.3326 500.33 179.529L437.362 192.913C408.711 110.213 327.069 57.1944 239.866 64.658L226.481 1.69009Z" fill="white"/>
<path d="M304.954 136.87L249.089 222.893L162.919 166.934L200.298 109.376L247.249 99.3961L304.954 136.87Z" fill="white"/>
</g>
<defs>
<clipPath id="clip0_136_2">
<rect width="512" height="512" fill="white"/>
</clipPath>
</defs>
</svg>
